<svg xmlns="http://www.w3.org/2000/svg" width="1500" height="1500" viewBox="0 0 1500 1500"><path d="M 1053.660 541.001 C 1048.511 547.632, 1047.668 549.423, 1051.500 545.591 C 1052.875 544.216, 1054 542.676, 1054 542.168 C 1054 541.660, 1054.700 540.664, 1055.555 539.955 C 1057.089 538.681, 1059.423 535, 1058.696 535 C 1058.490 535, 1056.224 537.701, 1053.660 541.001 M 976.284 654.250 C 974.336 656.785, 968 667.790, 968.004 668.631 C 968.008 669.497, 973.535 660.978, 976.360 655.750 C 977.929 652.848, 977.894 652.156, 976.284 654.250 M 778.287 728.740 C 781.469 728.939, 786.419 728.937, 789.287 728.736 C 792.154 728.535, 789.550 728.372, 783.500 728.374 C 777.450 728.376, 775.104 728.541, 778.287 728.740 M 160.078 910.500 C 160.025 911.588, 161.774 916.659, 164.908 924.500 C 166.007 927.250, 166.899 928.825, 166.890 928 C 166.870 926.261, 160.152 909.001, 160.078 910.500 M 847.612 931.641 C 846.178 935.906, 845.381 938.969, 845.840 938.448 C 847.067 937.057, 851.249 924.916, 850.693 924.360 C 850.433 924.099, 849.046 927.375, 847.612 931.641" stroke="none" fill="#6caf6c" fill-rule="evenodd"></path><path d="M 621.500 227.063 C 612.700 227.512, 600.550 228.398, 594.500 229.030 C 588.450 229.663, 580.462 230.402, 576.750 230.672 C 573.038 230.943, 570 231.577, 570 232.082 C 570 232.587, 567.337 233, 564.083 233 C 560.554 233, 558.014 233.459, 557.788 234.136 C 557.580 234.761, 555.517 235.273, 553.205 235.273 C 550.892 235.273, 549 235.661, 549 236.136 C 549 236.611, 547.002 237, 544.559 237 C 542.116 237, 539.883 237.381, 539.595 237.847 C 539.307 238.313, 537.602 238.735, 535.806 238.786 C 534.010 238.838, 532.381 239.356, 532.187 239.940 C 531.992 240.523, 530.071 241, 527.917 241 C 525.763 241, 524 241.450, 524 242 C 524 242.550, 522.452 243, 520.559 243 C 518.666 243, 516.871 243.400, 516.568 243.890 C 516.266 244.379, 514.552 245.003, 512.759 245.278 C 508.666 245.904, 506.237 246.537, 502.750 247.886 C 501.238 248.472, 500 248.725, 500 248.450 C 500 248.174, 498.637 248.654, 496.971 249.515 C 495.304 250.377, 493.543 250.836, 493.056 250.535 C 492.569 250.234, 492.020 250.427, 491.835 250.964 C 491.651 251.502, 490.375 252.067, 489 252.221 C 487.625 252.374, 485.924 253.043, 485.221 253.708 C 484.518 254.372, 483.280 254.661, 482.471 254.351 C 481.662 254.040, 481 254.284, 481 254.893 C 481 255.502, 479.902 256, 478.559 256 C 477.216 256, 475.840 256.450, 475.500 257 C 475.160 257.550, 474.009 258, 472.941 258 C 471.873 258, 471 258.450, 471 259 C 471 259.550, 469.875 260, 468.500 260 C 467.125 260, 466 260.450, 466 261 C 466 261.550, 465.078 262, 463.950 262 C 462.823 262, 460.461 262.763, 458.700 263.695 C 456.940 264.628, 454.870 265.498, 454.100 265.629 C 453.330 265.760, 452.430 266.234, 452.100 266.684 C 451.770 267.133, 450.825 267.643, 450 267.818 C 449.175 267.993, 447.193 268.781, 445.596 269.568 C 443.999 270.356, 442.087 271, 441.346 271 C 440.606 271, 440 271.450, 440 272 C 440 272.550, 439.127 273, 438.059 273 C 436.991 273, 435.835 273.457, 435.490 274.016 C 435.144 274.575, 434.440 274.772, 433.924 274.453 C 433.408 274.134, 432.716 274.577, 432.386 275.437 C 432.056 276.296, 431.127 277, 430.322 277 C 429.516 277, 428.178 277.679, 427.348 278.509 C 426.518 279.339, 425.425 279.763, 424.919 279.450 C 424.414 279.138, 424 279.359, 424 279.941 C 424 280.523, 423.325 281, 422.500 281 C 421.675 281, 421 281.398, 421 281.883 C 421 282.369, 419.988 283.096, 418.750 283.499 C 417.512 283.902, 416.275 284.352, 416 284.500 C 415.725 284.648, 414.488 285.098, 413.250 285.501 C 412.012 285.904, 411 286.522, 411 286.875 C 411 287.228, 408.537 288.638, 405.527 290.008 C 402.517 291.379, 400.042 292.837, 400.027 293.250 C 400.012 293.663, 399.325 294, 398.500 294 C 397.675 294, 397 294.450, 397 295 C 397 295.550, 396.395 296, 395.655 296 C 394.915 296, 393.481 296.916, 392.468 298.035 C 391.455 299.155, 390.035 299.844, 389.313 299.567 C 388.591 299.290, 388 299.724, 388 300.531 C 388 301.339, 387.498 302, 386.884 302 C 385.584 302, 371.660 311.047, 371.167 312.212 C 370.983 312.646, 370.196 313, 369.417 313 C 368.637 313, 368 313.450, 368 314 C 368 314.550, 367.325 315, 366.500 315 C 365.675 315, 365 315.450, 365 316 C 365 316.550, 364.325 317, 363.500 317 C 362.675 317, 362 317.450, 362 318 C 362 318.550, 361.424 319, 360.721 319 C 360.017 319, 358.810 319.876, 358.039 320.946 C 357.267 322.017, 356.268 322.665, 355.818 322.387 C 355.368 322.109, 355 322.330, 355 322.877 C 355 323.424, 353.200 324.884, 351 326.120 C 348.800 327.357, 347 328.735, 347 329.184 C 347 329.633, 346.435 330, 345.745 330 C 345.054 330, 342.578 331.800, 340.243 334 C 337.907 336.200, 335.654 338, 335.237 338 C 334.820 338, 333.363 339.350, 332 341 C 330.637 342.650, 329.130 344, 328.652 344 C 327.658 344, 326.127 345.342, 314.150 356.711 C 297.267 372.737, 294 375.917, 294 376.325 C 294 376.551, 291.975 378.762, 289.500 381.237 C 287.025 383.712, 285 385.584, 285 385.397 C 285 385.211, 283.313 386.897, 281.250 389.146 C 279.188 391.394, 275.587 395.265, 273.250 397.748 C 270.912 400.232, 269 402.849, 269 403.564 C 269 404.280, 268.100 405.151, 267 405.500 C 265.900 405.849, 265 406.551, 265 407.060 C 265 407.568, 263.650 409.187, 262 410.658 C 260.350 412.128, 259 413.766, 259 414.298 C 259 414.830, 258.031 416.106, 256.847 417.133 C 255.663 418.160, 255.018 419, 255.414 419 C 256.285 419, 249.017 428.169, 247.250 429.300 C 246.563 429.740, 245.993 430.640, 245.984 431.300 C 245.975 431.960, 244.738 433.917, 243.234 435.648 C 241.730 437.379, 239.825 439.784, 239 440.991 C 238.175 442.199, 236.802 444.011, 235.948 445.018 C 235.094 446.025, 233.530 448.458, 232.471 450.425 C 231.412 452.391, 229.961 454, 229.248 454 C 228.534 454, 227.680 455.350, 227.350 457 C 227.020 458.650, 226.131 460, 225.375 460 C 224.619 460, 224 460.882, 224 461.961 C 224 463.040, 223.170 464.727, 222.156 465.711 C 221.142 466.695, 219.455 469.075, 218.406 471 C 217.358 472.925, 216.226 474.725, 215.892 475 C 215.558 475.275, 214.391 477.534, 213.300 480.021 C 212.208 482.508, 210.680 485.208, 209.904 486.021 C 209.128 486.834, 207.405 489.863, 206.076 492.750 C 204.746 495.637, 203.353 498, 202.981 498 C 202.608 498, 201.588 499.688, 200.713 501.750 C 199.838 503.813, 197.827 507.750, 196.244 510.500 C 194.662 513.250, 192.301 518.087, 190.999 521.250 C 189.697 524.413, 188.265 527, 187.816 527 C 187.367 527, 187 527.900, 187 529 C 187 530.100, 186.550 531, 186 531 C 185.450 531, 185 531.900, 185 533 C 185 534.100, 184.601 535, 184.113 535 C 183.626 535, 183.009 536.237, 182.743 537.750 C 182.343 540.026, 176.192 554.668, 172.876 561.236 C 172.394 562.191, 172 563.852, 172 564.927 C 172 566.002, 171.550 567.160, 171 567.500 C 170.450 567.840, 170 568.991, 170 570.059 C 170 571.127, 169.550 572, 169 572 C 168.450 572, 168 573.125, 168 574.500 C 168 575.875, 167.523 577, 166.941 577 C 166.359 577, 166.125 577.394, 166.423 577.875 C 167.175 579.093, 164.030 588, 162.847 588 C 162.316 588, 162.123 588.390, 162.418 588.867 C 162.712 589.343, 160.933 595.903, 158.465 603.443 C 155.996 610.983, 154.214 617.537, 154.504 618.007 C 154.795 618.477, 154.575 619.144, 154.016 619.490 C 153.457 619.835, 153 621.591, 153 623.392 C 153 625.193, 152.702 626.965, 152.337 627.329 C 151.973 627.694, 151.517 629.434, 151.324 631.195 C 151.131 632.957, 150.472 634.709, 149.858 635.087 C 149.245 635.466, 149.057 636.282, 149.439 636.901 C 149.821 637.519, 149.429 639.439, 148.567 641.166 C 147.705 642.894, 147 646.038, 147 648.154 C 147 650.269, 146.621 652, 146.158 652 C 145.695 652, 145.285 654.086, 145.247 656.636 C 145.208 659.186, 144.661 661.592, 144.030 661.981 C 143.337 662.410, 143.148 663.740, 143.550 665.345 C 143.976 667.042, 143.810 668, 143.089 668 C 142.386 668, 142.198 668.941, 142.589 670.500 C 142.976 672.040, 142.791 673, 142.108 673 C 141.411 673, 141 675.410, 141 679.500 C 141 683.585, 140.589 686, 139.893 686 C 139.284 686, 139.058 686.708, 139.390 687.574 C 139.722 688.440, 139.222 695.302, 138.278 702.824 C 136.018 720.835, 135.779 784.326, 137.902 802.500 C 138.673 809.100, 139.246 816.413, 139.174 818.750 C 139.102 821.087, 139.447 823, 139.940 823 C 140.432 823, 140.813 825.524, 140.785 828.609 C 140.758 831.694, 141.201 834.507, 141.770 834.859 C 142.339 835.212, 142.824 837.933, 142.847 840.906 C 142.870 843.995, 143.403 846.631, 144.090 847.055 C 144.751 847.464, 145.021 848.504, 144.689 849.367 C 144.358 850.230, 144.557 851.226, 145.131 851.581 C 145.705 851.936, 145.958 853.053, 145.693 854.065 C 145.429 855.076, 145.634 856.045, 146.150 856.217 C 146.665 856.388, 147.163 858.435, 147.256 860.765 C 147.349 863.094, 147.749 865, 148.146 865 C 148.542 865, 148.828 866.334, 148.782 867.965 C 148.736 869.596, 149.266 871.616, 149.961 872.453 C 150.655 873.290, 150.984 874.599, 150.691 875.363 C 150.398 876.126, 150.795 877.979, 151.574 879.480 C 152.352 880.980, 152.759 882.580, 152.478 883.035 C 152.197 883.490, 152.432 884.149, 153 884.500 C 153.568 884.851, 153.785 885.539, 153.482 886.028 C 153.180 886.518, 153.363 887.724, 153.889 888.709 C 154.416 889.694, 155.587 893.425, 156.493 897 C 157.399 900.575, 160.133 908.837, 162.570 915.361 C 165.006 921.884, 167 927.862, 167 928.646 C 167 929.429, 167.714 931.160, 168.586 932.491 C 169.459 933.823, 169.914 935.331, 169.597 935.843 C 169.281 936.355, 169.648 937.293, 170.413 937.928 C 171.848 939.119, 173.460 943.648, 173.150 945.617 C 173.053 946.231, 173.655 947.298, 174.487 947.989 C 175.319 948.680, 176 949.891, 176 950.680 C 176 951.469, 177.125 954.130, 178.500 956.593 C 179.875 959.056, 181 961.730, 181 962.535 C 181 963.341, 181.450 964, 182 964 C 182.550 964, 183 964.900, 183 966 C 183 967.100, 183.450 968, 184 968 C 184.550 968, 185 968.686, 185 969.524 C 185 970.362, 186.581 973.347, 188.514 976.157 C 190.447 978.967, 192.308 982.444, 192.649 983.883 C 192.990 985.322, 193.794 987.175, 194.435 988 C 196.787 991.024, 203 1001.834, 203 1002.901 C 203 1003.505, 203.382 1004, 203.848 1004 C 204.315 1004, 205.544 1005.912, 206.580 1008.250 C 207.617 1010.587, 209.004 1013.064, 209.664 1013.753 C 210.324 1014.442, 212.785 1018.492, 215.134 1022.753 C 217.483 1027.014, 220.213 1031.372, 221.202 1032.439 C 222.191 1033.505, 223 1035.192, 223 1036.189 C 223 1037.185, 223.599 1038, 224.331 1038 C 225.063 1038, 226.301 1039.237, 227.081 1040.750 C 227.861 1042.263, 229.063 1044.095, 229.750 1044.821 C 230.437 1045.548, 231 1046.760, 231 1047.515 C 231 1048.269, 232 1049.587, 233.223 1050.443 C 234.445 1051.299, 235.089 1052, 234.654 1052 C 233.921 1052, 237.110 1057.055, 239.467 1059.627 C 240.035 1060.248, 241.175 1061.765, 242 1063 C 242.825 1064.235, 244.062 1065.833, 244.750 1066.551 C 245.437 1067.269, 246 1068.239, 246 1068.706 C 246 1069.173, 246.788 1070.299, 247.750 1071.207 C 250.013 1073.344, 251.232 1074.880, 253.556 1078.526 C 254.599 1080.162, 256.025 1081.860, 256.726 1082.300 C 257.427 1082.740, 258 1083.644, 258 1084.309 C 258 1084.975, 258.900 1086.081, 260 1086.768 C 261.100 1087.455, 262 1088.581, 262 1089.269 C 262 1089.958, 263.350 1091.637, 265 1093 C 266.650 1094.363, 268 1095.820, 268 1096.239 C 268 1096.658, 268.788 1097.841, 269.750 1098.870 C 274.656 1104.111, 277 1106.880, 277 1107.435 C 277 1107.773, 280.488 1111.620, 284.750 1115.984 C 289.012 1120.348, 294.075 1125.718, 296 1127.918 C 297.925 1130.118, 300.288 1132.191, 301.250 1132.526 C 302.212 1132.861, 303 1133.779, 303 1134.567 C 303 1135.355, 303.369 1136, 303.821 1136 C 304.558 1136, 309.834 1141.001, 315.645 1147.208 C 319.005 1150.796, 325.226 1156, 326.157 1156 C 326.621 1156, 327 1156.661, 327 1157.469 C 327 1158.276, 327.573 1158.717, 328.273 1158.449 C 328.973 1158.180, 330.353 1159.327, 331.340 1160.998 C 332.327 1162.668, 333.497 1163.811, 333.941 1163.536 C 334.385 1163.262, 335.587 1164.154, 336.611 1165.519 C 337.636 1166.883, 338.878 1168, 339.370 1168 C 339.862 1168, 341.106 1168.969, 342.133 1170.153 C 343.160 1171.337, 344.001 1171.900, 344.001 1171.403 C 344.002 1170.906, 345.127 1171.807, 346.501 1173.406 C 347.876 1175.004, 349 1175.925, 349 1175.453 C 349 1174.980, 350.800 1176.352, 353 1178.500 C 355.200 1180.648, 357 1182.021, 357 1181.550 C 357 1181.079, 357.840 1181.663, 358.867 1182.847 C 359.894 1184.031, 361.244 1185, 361.867 1185 C 362.490 1185, 363 1185.450, 363 1186 C 363 1186.550, 363.675 1187, 364.500 1187 C 365.325 1187, 366 1187.450, 366 1188 C 366 1188.550, 366.675 1189, 367.500 1189 C 368.325 1189, 369 1189.450, 369 1190 C 369 1190.550, 369.675 1191, 370.500 1191 C 371.325 1191, 372 1191.367, 372 1191.815 C 372 1192.263, 373.575 1193.381, 375.500 1194.299 C 377.425 1195.217, 379 1196.425, 379 1196.984 C 379 1197.543, 379.900 1198, 381 1198 C 382.100 1198, 383 1198.450, 383 1199 C 383 1199.550, 383.675 1200, 384.500 1200 C 385.325 1200, 386 1200.450, 386 1201 C 386 1201.550, 386.675 1202, 387.500 1202 C 388.325 1202, 389 1202.702, 389 1203.559 C 389 1204.416, 389.445 1204.843, 389.988 1204.507 C 390.531 1204.172, 392.188 1205.021, 393.670 1206.395 C 395.152 1207.769, 396.732 1208.666, 397.182 1208.387 C 397.632 1208.109, 398 1208.275, 398 1208.754 C 398 1209.234, 399.575 1210.245, 401.500 1211 C 403.425 1211.755, 405 1212.739, 405 1213.187 C 405 1213.634, 405.447 1214, 405.993 1214 C 407.701 1214, 415 1217.433, 415 1218.236 C 415 1218.656, 415.675 1219, 416.500 1219 C 417.325 1219, 418 1219.477, 418 1220.059 C 418 1220.641, 418.414 1220.862, 418.919 1220.550 C 419.425 1220.237, 420.518 1220.661, 421.348 1221.491 C 422.178 1222.321, 423.564 1223, 424.429 1223 C 425.293 1223, 426 1223.450, 426 1224 C 426 1224.550, 426.900 1225, 428 1225 C 429.100 1225, 430 1225.450, 430 1226 C 430 1226.550, 430.900 1227, 432 1227 C 433.100 1227, 434 1227.450, 434 1228 C 434 1228.550, 434.661 1229, 435.470 1229 C 436.278 1229, 438.446 1229.846, 440.287 1230.880 C 442.129 1231.915, 445.036 1233.069, 446.749 1233.445 C 448.461 1233.821, 450.376 1234.748, 451.004 1235.505 C 451.632 1236.262, 452.743 1236.652, 453.472 1236.372 C 454.201 1236.093, 455.095 1236.344, 455.458 1236.932 C 455.821 1237.519, 456.991 1238, 458.059 1238 C 459.127 1238, 460 1238.450, 460 1239 C 460 1239.550, 461.125 1240, 462.500 1240 C 463.875 1240, 465 1240.450, 465 1241 C 465 1241.550, 466.125 1242, 467.500 1242 C 468.875 1242, 470 1242.436, 470 1242.969 C 470 1243.501, 470.617 1243.700, 471.371 1243.411 C 472.125 1243.122, 473.443 1243.586, 474.300 1244.442 C 475.156 1245.299, 476.789 1246, 477.929 1246 C 479.068 1246, 480 1246.450, 480 1247 C 480 1247.550, 481.350 1248, 483 1248 C 484.650 1248, 486 1248.450, 486 1249 C 486 1249.550, 487.062 1250, 488.361 1250 C 489.659 1250, 494.272 1251.153, 498.611 1252.562 C 502.950 1253.971, 507.400 1255.282, 508.500 1255.476 C 509.600 1255.669, 511.850 1256.247, 513.500 1256.760 C 515.150 1257.273, 517.063 1257.499, 517.750 1257.263 C 518.438 1257.027, 519 1257.321, 519 1257.917 C 519 1258.513, 520.763 1259, 522.917 1259 C 525.071 1259, 526.998 1259.495, 527.200 1260.100 C 527.402 1260.705, 529.240 1261.200, 531.286 1261.200 C 533.332 1261.200, 535.256 1261.605, 535.562 1262.100 C 535.868 1262.595, 538.079 1263, 540.476 1263 C 542.872 1263, 544.992 1263.475, 545.185 1264.055 C 545.379 1264.636, 547.891 1265.129, 550.769 1265.151 C 553.646 1265.174, 556.252 1265.599, 556.559 1266.096 C 556.867 1266.593, 559.791 1267, 563.059 1267 C 566.327 1267, 569 1267.416, 569 1267.924 C 569 1268.432, 572.712 1269.113, 577.250 1269.438 C 581.788 1269.763, 587.525 1270.176, 590 1270.357 C 592.475 1270.537, 600.350 1270.986, 607.500 1271.354 C 614.650 1271.722, 624.550 1272.257, 629.500 1272.544 C 637.276 1272.994, 675.704 1271.631, 687.500 1270.486 C 689.700 1270.272, 696.225 1269.790, 702 1269.415 C 707.775 1269.039, 712.766 1268.319, 713.091 1267.814 C 713.416 1267.310, 716.453 1266.884, 719.841 1266.868 C 723.228 1266.852, 726 1266.448, 726 1265.971 C 726 1265.494, 728.763 1265.118, 732.141 1265.134 C 735.518 1265.150, 738.555 1264.728, 738.891 1264.197 C 739.226 1263.666, 741.516 1263.206, 743.980 1263.175 C 746.444 1263.144, 748.619 1262.642, 748.813 1262.060 C 749.008 1261.477, 751.342 1261, 754 1261 C 756.658 1261, 758.987 1260.540, 759.174 1259.979 C 759.361 1259.417, 761.217 1258.893, 763.299 1258.815 C 765.381 1258.737, 767.317 1258.296, 767.601 1257.836 C 767.885 1257.376, 769.865 1257, 772 1257 C 774.135 1257, 776.125 1256.606, 776.423 1256.125 C 776.720 1255.644, 777.984 1255.243, 779.232 1255.235 C 780.479 1255.226, 785.885 1254.045, 791.246 1252.610 C 796.606 1251.174, 801.856 1250, 802.912 1250 C 803.969 1250, 804.987 1249.540, 805.174 1248.979 C 805.361 1248.417, 806.973 1247.855, 808.755 1247.729 C 810.538 1247.603, 811.997 1247.162, 811.998 1246.750 C 811.999 1246.338, 813.575 1246, 815.500 1246 C 817.425 1246, 819 1245.550, 819 1245 C 819 1244.450, 820.098 1244, 821.441 1244 C 822.784 1244, 824.171 1243.532, 824.525 1242.959 C 824.879 1242.387, 825.983 1242.177, 826.979 1242.493 C 827.975 1242.809, 829.480 1242.378, 830.323 1241.534 C 831.167 1240.690, 833.014 1240, 834.429 1240 C 835.843 1240, 837 1239.550, 837 1239 C 837 1238.450, 838.350 1238, 840 1238 C 841.650 1238, 843 1237.550, 843 1237 C 843 1236.450, 843.825 1236, 844.833 1236 C 845.842 1236, 847.004 1235.663, 847.417 1235.250 C 847.829 1234.838, 848.467 1234.475, 848.833 1234.444 C 850.870 1234.271, 856.643 1232.663, 857.500 1232.030 C 858.050 1231.623, 860.638 1230.677, 863.250 1229.927 C 865.862 1229.177, 868 1228.163, 868 1227.675 C 868 1227.186, 868.662 1227.040, 869.471 1227.351 C 870.280 1227.661, 871.598 1227.259, 872.400 1226.458 C 873.201 1225.656, 874.752 1225, 875.845 1225 C 876.939 1225, 877.990 1224.530, 878.181 1223.956 C 878.373 1223.381, 879.535 1222.835, 880.765 1222.743 C 881.994 1222.650, 883 1222.220, 883 1221.787 C 883 1221.354, 883.900 1221, 885 1221 C 886.100 1221, 887 1220.550, 887 1220 C 887 1219.450, 887.900 1219, 889 1219 C 890.100 1219, 891 1218.550, 891 1218 C 891 1217.450, 891.831 1217, 892.846 1217 C 894.653 1217, 897.603 1215.802, 905.345 1211.925 C 907.459 1210.866, 909.821 1210, 910.595 1210 C 911.368 1210, 912 1209.502, 912 1208.893 C 912 1208.284, 912.662 1208.040, 913.471 1208.351 C 914.280 1208.661, 915.598 1208.259, 916.400 1207.458 C 917.201 1206.656, 918.564 1206, 919.429 1206 C 920.293 1206, 921 1205.550, 921 1205 C 921 1204.450, 921.493 1204, 922.096 1204 C 922.698 1204, 924.469 1203.090, 926.030 1201.978 C 927.592 1200.866, 929.237 1200.066, 929.685 1200.201 C 930.133 1200.335, 931.625 1199.744, 933 1198.888 C 939.957 1194.555, 950.424 1189, 951.632 1189 C 952.385 1189, 953 1188.550, 953 1188 C 953 1187.450, 953.482 1187, 954.071 1187 C 954.661 1187, 955.822 1186.321, 956.652 1185.491 C 957.482 1184.661, 958.575 1184.237, 959.081 1184.550 C 959.586 1184.862, 960 1184.641, 960 1184.059 C 960 1183.477, 960.675 1183, 961.500 1183 C 962.325 1183, 963 1182.523, 963 1181.941 C 963 1181.359, 963.403 1181.131, 963.895 1181.435 C 964.388 1181.740, 965.048 1181.316, 965.364 1180.494 C 965.679 1179.672, 966.626 1179, 967.469 1179 C 968.311 1179, 969 1178.550, 969 1178 C 969 1177.450, 969.675 1177, 970.500 1177 C 971.325 1177, 972 1176.550, 972 1176 C 972 1175.450, 972.472 1175, 973.048 1175 C 974.405 1175, 985.397 1168.011, 985.833 1166.871 C 986.017 1166.392, 986.804 1166, 987.583 1166 C 988.362 1166, 989 1165.550, 989 1165 C 989 1164.450, 989.675 1164, 990.500 1164 C 991.325 1164, 992 1163.550, 992 1163 C 992 1162.450, 992.675 1162, 993.500 1162 C 994.325 1162, 995 1161.550, 995 1161 C 995 1160.450, 995.510 1160, 996.133 1160 C 996.756 1160, 997.993 1159.175, 998.883 1158.167 C 999.772 1157.159, 1001.850 1155.472, 1003.500 1154.417 C 1007.572 1151.814, 1009.905 1149.919, 1012.323 1147.250 C 1013.444 1146.013, 1014.774 1145, 1015.279 1145 C 1015.784 1145, 1017.459 1143.650, 1019 1142 C 1020.541 1140.350, 1022.053 1139, 1022.358 1139 C 1023.031 1139, 1058.467 1103.202, 1065.500 1095.417 C 1068.250 1092.373, 1071.737 1088.623, 1073.250 1087.083 C 1074.763 1085.543, 1076 1083.869, 1076 1083.362 C 1076 1082.856, 1076.900 1081.793, 1078 1081 C 1079.100 1080.207, 1080.012 1079.095, 1080.028 1078.529 C 1080.043 1077.963, 1081.441 1076.150, 1083.134 1074.500 C 1084.828 1072.850, 1086.604 1070.487, 1087.082 1069.250 C 1087.560 1068.013, 1088.637 1067, 1089.475 1067 C 1090.314 1067, 1091 1066.148, 1091 1065.107 C 1091 1064.066, 1091.675 1062.955, 1092.500 1062.638 C 1093.325 1062.322, 1094 1061.580, 1094 1060.989 C 1094 1060.399, 1094.458 1059.372, 1095.019 1058.708 C 1095.579 1058.044, 1096.982 1056.375, 1098.136 1055 C 1099.291 1053.625, 1103.406 1047.775, 1107.281 1042 C 1111.156 1036.225, 1114.591 1031.275, 1114.915 1031 C 1115.238 1030.725, 1116.141 1029.263, 1116.921 1027.750 C 1117.700 1026.237, 1118.712 1025, 1119.169 1025 C 1119.626 1025, 1120 1024.357, 1120 1023.571 C 1120 1022.786, 1120.563 1021.548, 1121.250 1020.821 C 1121.938 1020.095, 1123.825 1016.927, 1125.444 1013.782 C 1127.063 1010.638, 1128.976 1007.839, 1129.694 1007.564 C 1130.412 1007.288, 1131 1006.149, 1131 1005.031 C 1131 1003.914, 1131.450 1003, 1132 1003 C 1132.550 1003, 1133 1002.325, 1133 1001.500 C 1133 1000.675, 1133.787 999.175, 1134.750 998.166 C 1136.867 995.947, 1139.346 991.796, 1141.567 986.750 C 1142.475 984.687, 1143.618 983, 1144.109 983 C 1144.599 983, 1144.927 982.663, 1144.839 982.250 C 1144.577 981.034, 1146.786 976.250, 1147.938 975.538 C 1148.522 975.177, 1149 974.009, 1149 972.941 C 1149 971.873, 1149.450 971, 1150 971 C 1150.550 971, 1151 970.309, 1151 969.465 C 1151 968.621, 1152.970 964.459, 1155.378 960.215 C 1157.785 955.972, 1160.762 950.250, 1161.992 947.500 C 1163.223 944.750, 1165.303 940.125, 1166.615 937.223 C 1167.927 934.320, 1169 931.508, 1169 930.973 C 1169 930.438, 1169.450 930, 1170 930 C 1170.550 930, 1171 929.132, 1171 928.071 C 1171 927.011, 1171.755 925.388, 1172.678 924.465 C 1173.601 923.542, 1174.407 921.628, 1174.469 920.213 C 1174.531 918.797, 1175.126 917.458, 1175.791 917.236 C 1176.456 917.015, 1177 916.227, 1177 915.486 C 1177 914.746, 1178.299 911.296, 1179.887 907.820 C 1182.440 902.233, 1184.272 897.503, 1184.466 896 C 1184.502 895.725, 1184.802 895.050, 1185.134 894.500 C 1185.466 893.950, 1186.281 891.813, 1186.946 889.750 C 1187.611 887.687, 1188.570 886, 1189.078 886 C 1189.585 886, 1190 884.875, 1190 883.500 C 1190 882.125, 1190.450 881, 1191 881 C 1191.550 881, 1192 880.121, 1192 879.047 C 1192 877.036, 1193.974 871.887, 1195.085 871 C 1195.430 870.725, 1196.019 868.827, 1196.395 866.782 C 1196.771 864.737, 1197.623 862.487, 1198.289 861.782 C 1198.955 861.077, 1199.656 859.375, 1199.848 858 C 1200.039 856.625, 1200.542 855.050, 1200.965 854.500 C 1201.389 853.950, 1202.502 851.025, 1203.439 848 C 1204.376 844.975, 1205.493 841.600, 1205.921 840.500 C 1206.349 839.400, 1207.737 835.237, 1209.006 831.250 C 1210.274 827.262, 1211.692 824, 1212.156 824 C 1212.620 824, 1213 822.650, 1213 821 C 1213 819.350, 1213.450 818, 1214 818 C 1214.550 818, 1215 817.133, 1215 816.073 C 1215 815.014, 1217.050 808.151, 1219.555 800.823 C 1225.333 783.922, 1226.891 779, 1226.461 779 C 1226.273 779, 1226.731 777.819, 1227.480 776.376 C 1228.229 774.932, 1228.604 773.132, 1228.314 772.376 C 1228.024 771.619, 1228.284 771, 1228.893 771 C 1229.502 771, 1230 769.650, 1230 768 C 1230 766.350, 1230.375 765, 1230.833 765 C 1231.292 765, 1231.667 763.610, 1231.667 761.912 C 1231.667 760.214, 1232.122 758.526, 1232.679 758.162 C 1233.235 757.798, 1233.975 755.704, 1234.322 753.508 C 1234.669 751.312, 1235.388 749.371, 1235.920 749.193 C 1236.452 749.016, 1236.640 748.225, 1236.337 747.435 C 1236.034 746.646, 1236.284 746, 1236.893 746 C 1237.502 746, 1238 744.425, 1238 742.500 C 1238 740.575, 1238.477 739, 1239.059 739 C 1239.641 739, 1239.857 738.577, 1239.537 738.060 C 1239.218 737.544, 1240.572 731.806, 1242.547 725.310 C 1244.521 718.815, 1246.340 711.946, 1246.588 710.047 C 1246.837 708.147, 1247.551 706.278, 1248.175 705.892 C 1248.799 705.506, 1249.270 703.805, 1249.222 702.113 C 1249.174 700.420, 1249.554 698.775, 1250.067 698.458 C 1250.580 698.141, 1251 696.634, 1251 695.108 C 1251 693.582, 1251.299 692.034, 1251.665 691.668 C 1252.031 691.302, 1252.461 689.771, 1252.622 688.266 C 1252.782 686.760, 1253.335 685.388, 1253.851 685.216 C 1254.366 685.045, 1254.558 684.026, 1254.277 682.952 C 1253.996 681.878, 1254.157 680.999, 1254.633 680.998 C 1255.110 680.996, 1255.553 679.554, 1255.617 677.792 C 1255.681 676.030, 1256.218 674.427, 1256.811 674.230 C 1257.403 674.032, 1257.657 673.270, 1257.376 672.537 C 1257.094 671.803, 1257.344 670.905, 1257.932 670.542 C 1258.519 670.179, 1259 668.559, 1259 666.941 C 1259 665.323, 1259.477 664, 1260.059 664 C 1260.641 664, 1260.889 663.629, 1260.608 663.175 C 1260.101 662.355, 1261.069 658.006, 1264.809 644.303 C 1265.889 640.345, 1266.535 636.868, 1266.244 636.577 C 1265.953 636.286, 1266.284 635.362, 1266.980 634.524 C 1267.676 633.686, 1267.875 633, 1267.422 633 C 1266.970 633, 1267.105 632.495, 1267.722 631.878 C 1268.339 631.261, 1268.606 630.136, 1268.315 629.378 C 1268.024 628.620, 1268.195 628, 1268.695 628 C 1269.195 628, 1269.651 626.326, 1269.709 624.281 C 1269.767 622.235, 1270.306 620.398, 1270.907 620.198 C 1271.508 619.997, 1272.014 618.408, 1272.032 616.667 C 1272.049 614.925, 1272.677 612.692, 1273.426 611.704 C 1274.175 610.715, 1274.559 609.028, 1274.278 607.954 C 1273.996 606.877, 1274.268 606, 1274.883 606 C 1275.515 606, 1276 604.301, 1276 602.083 C 1276 599.929, 1276.521 597.993, 1277.158 597.781 C 1277.795 597.568, 1278.275 595.956, 1278.225 594.197 C 1278.175 592.439, 1278.491 591, 1278.928 591 C 1279.364 591, 1279.985 588.862, 1280.306 586.250 C 1280.628 583.638, 1282.295 576.639, 1284.012 570.697 C 1285.728 564.755, 1287.198 558.905, 1287.279 557.697 C 1287.360 556.489, 1287.969 554.432, 1288.634 553.126 C 1289.298 551.820, 1289.604 550.132, 1289.314 549.376 C 1289.024 548.619, 1289.284 548, 1289.893 548 C 1290.518 548, 1291 546.258, 1291 544 C 1291 541.800, 1291.436 540, 1291.969 540 C 1292.501 540, 1292.692 539.360, 1292.392 538.578 C 1292.092 537.796, 1292.412 536.109, 1293.104 534.828 C 1293.796 533.548, 1294.513 531.150, 1294.698 529.500 C 1294.883 527.850, 1295.479 526.349, 1296.023 526.165 C 1296.567 525.980, 1296.772 525.440, 1296.478 524.965 C 1296.184 524.489, 1297.833 517.440, 1300.141 509.300 C 1302.450 501.160, 1304.403 493.722, 1304.482 492.770 C 1304.561 491.819, 1304.935 490.732, 1305.313 490.354 C 1305.691 489.976, 1306 488.643, 1306 487.392 C 1306 486.141, 1306.481 484.821, 1307.068 484.458 C 1307.656 484.095, 1307.916 483.224, 1307.647 482.523 C 1307.378 481.822, 1307.848 479.955, 1308.691 478.374 C 1309.534 476.793, 1310.204 474.270, 1310.180 472.767 C 1310.155 471.264, 1310.554 469.775, 1311.067 469.458 C 1311.580 469.141, 1312 467.559, 1312 465.941 C 1312 464.323, 1312.450 463, 1313 463 C 1313.550 463, 1314 461.794, 1314 460.321 C 1314 457.084, 1316.089 451, 1317.201 451 C 1317.640 451, 1318 449.425, 1318 447.500 C 1318 445.575, 1318.477 444, 1319.059 444 C 1319.641 444, 1319.837 443.545, 1319.493 442.989 C 1319.149 442.433, 1320.469 437.019, 1322.425 430.959 C 1324.382 424.898, 1326.232 418.490, 1326.538 416.720 C 1327.361 411.950, 1329.232 406, 1329.908 405.999 C 1330.234 405.999, 1330.571 404.775, 1330.658 403.280 C 1330.745 401.785, 1331.307 400.398, 1331.908 400.197 C 1332.509 399.997, 1333 398.665, 1333 397.238 C 1333 393.989, 1335.113 388, 1336.260 388 C 1336.732 388, 1336.863 387.587, 1336.551 387.082 C 1336.238 386.577, 1338.273 379.714, 1341.073 371.832 C 1343.872 363.949, 1346.283 357.050, 1346.430 356.500 C 1346.577 355.950, 1346.939 354.825, 1347.235 354 C 1347.530 353.175, 1348.291 350.587, 1348.926 348.250 C 1349.561 345.913, 1350.512 344, 1351.040 344 C 1351.568 344, 1352 342.896, 1352 341.547 C 1352 338.807, 1353.838 334.170, 1355.696 332.221 C 1356.366 331.518, 1356.678 330.326, 1356.389 329.572 C 1356.100 328.819, 1356.344 327.905, 1356.932 327.542 C 1357.519 327.179, 1358 326.009, 1358 324.941 C 1358 323.873, 1358.450 323, 1359 323 C 1359.550 323, 1360.003 321.988, 1360.006 320.750 C 1360.010 319.512, 1360.685 317.211, 1361.506 315.636 C 1364.073 310.714, 1363.579 309.961, 1358.250 310.673 C 1355.638 311.022, 1353.275 311.595, 1353 311.946 C 1352.725 312.297, 1351.175 312.680, 1349.556 312.797 C 1347.937 312.914, 1346.274 313.557, 1345.860 314.226 C 1345.447 314.895, 1344.783 315.116, 1344.384 314.718 C 1343.986 314.319, 1342.599 314.688, 1341.302 315.538 C 1340.005 316.388, 1338.542 316.835, 1338.052 316.532 C 1337.562 316.229, 1336.482 316.661, 1335.652 317.491 C 1334.822 318.321, 1333.023 319, 1331.655 319 C 1330.286 319, 1329.010 319.470, 1328.819 320.044 C 1328.627 320.619, 1327.465 321.165, 1326.235 321.257 C 1325.006 321.350, 1324 321.780, 1324 322.213 C 1324 322.646, 1323.094 323, 1321.986 323 C 1320.879 323, 1319.191 323.417, 1318.236 323.927 C 1316.742 324.725, 1313.641 325.992, 1312 326.474 C 1311.725 326.555, 1309.758 327.382, 1307.628 328.311 C 1305.498 329.240, 1303.136 330, 1302.378 330 C 1301.620 330, 1301 330.450, 1301 331 C 1301 331.550, 1300.100 332, 1299 332 C 1297.900 332, 1297 332.450, 1297 333 C 1297 333.550, 1296.100 334, 1295 334 C 1293.900 334, 1293 334.450, 1293 335 C 1293 335.550, 1292.100 336, 1291 336 C 1289.900 336, 1289 336.450, 1289 337 C 1289 337.550, 1288.100 338, 1287 338 C 1285.900 338, 1285 338.450, 1285 339 C 1285 339.550, 1284.100 340, 1283 340 C 1281.900 340, 1281 340.344, 1281 340.764 C 1281 341.481, 1273.426 345.290, 1271.714 345.434 C 1271.281 345.470, 1270.500 346.175, 1269.979 347 C 1269.457 347.825, 1269.024 348.169, 1269.015 347.765 C 1269.007 347.361, 1267.088 348.168, 1264.750 349.559 C 1262.412 350.950, 1259.713 352.346, 1258.750 352.661 C 1257.787 352.976, 1257 353.631, 1257 354.117 C 1257 354.602, 1256.325 355, 1255.500 355 C 1254.675 355, 1254 355.450, 1254 356 C 1254 356.550, 1253.325 357, 1252.500 357 C 1251.675 357, 1251 357.450, 1251 358 C 1251 358.550, 1250.148 359, 1249.107 359 C 1248.066 359, 1246.944 359.704, 1246.614 360.563 C 1246.284 361.423, 1245.608 361.876, 1245.112 361.569 C 1244.616 361.262, 1243.941 361.712, 1243.612 362.569 C 1243.283 363.426, 1242.561 363.847, 1242.007 363.504 C 1241.453 363.162, 1241 363.385, 1241 364 C 1241 364.615, 1240.550 364.840, 1240 364.500 C 1239.450 364.160, 1239 364.359, 1239 364.941 C 1239 365.523, 1238.325 366, 1237.500 366 C 1236.675 366, 1236 366.450, 1236 367 C 1236 367.550, 1235.325 368, 1234.500 368 C 1233.675 368, 1233 368.450, 1233 369 C 1233 369.550, 1232.325 370, 1231.500 370 C 1230.675 370, 1230 370.450, 1230 371 C 1230 371.550, 1229.325 372, 1228.500 372 C 1227.675 372, 1227 372.450, 1227 373 C 1227 373.550, 1226.325 374, 1225.500 374 C 1224.675 374, 1224 374.450, 1224 375 C 1224 375.550, 1223.654 375.887, 1223.231 375.750 C 1222.808 375.612, 1221.345 376.551, 1219.981 377.836 C 1216.296 381.306, 1212.002 384.250, 1211.985 383.318 C 1211.976 382.868, 1211.639 382.956, 1211.235 383.514 C 1210.831 384.071, 1208.025 386.546, 1205 389.014 C 1201.975 391.481, 1199.350 393.837, 1199.167 394.250 C 1198.983 394.663, 1198.295 395, 1197.637 395 C 1196.980 395, 1195.793 395.900, 1195 397 C 1194.207 398.100, 1193.082 399, 1192.500 399 C 1191.918 399, 1190.793 399.900, 1190 401 C 1189.207 402.100, 1188.213 403, 1187.791 403 C 1186.992 403, 1184.033 405.238, 1180.850 408.250 C 1179.832 409.212, 1178.600 410, 1178.111 410 C 1177.622 410, 1175.968 411.572, 1174.437 413.493 C 1172.905 415.414, 1171.451 416.784, 1171.204 416.538 C 1170.958 416.291, 1169.047 417.870, 1166.957 420.045 C 1164.867 422.220, 1162.905 424, 1162.598 424 C 1161.449 424, 1117.971 467.038, 1106.778 479.255 C 1103.632 482.690, 1097.894 488.842, 1094.028 492.927 C 1090.163 497.012, 1087 500.685, 1087 501.091 C 1087 501.497, 1085.429 503.554, 1083.509 505.664 C 1078.199 511.499, 1077 512.950, 1077 513.545 C 1077 513.845, 1075.875 515.216, 1074.500 516.591 C 1073.125 517.966, 1072 519.530, 1072 520.067 C 1072 520.604, 1070.875 521.555, 1069.500 522.182 C 1068.125 522.808, 1067 523.829, 1067 524.451 C 1067 525.072, 1065.313 527.460, 1063.250 529.759 C 1061.188 532.057, 1058.725 535.189, 1057.779 536.719 C 1054.133 542.610, 1053.388 543.563, 1049.750 547.001 C 1047.688 548.949, 1046 551.096, 1046 551.772 C 1046 552.447, 1045.550 553, 1045 553 C 1044.450 553, 1044 553.689, 1044 554.531 C 1044 555.374, 1043.325 556.322, 1042.500 556.638 C 1041.675 556.955, 1041 557.855, 1041 558.638 C 1041 559.422, 1040.328 560.321, 1039.506 560.636 C 1038.684 560.952, 1038.251 561.598, 1038.545 562.072 C 1038.838 562.546, 1038.160 563.508, 1037.039 564.208 C 1035.917 564.908, 1035 566.052, 1035 566.750 C 1035 567.448, 1034.100 568.790, 1033 569.732 C 1031.900 570.674, 1031 572.019, 1031 572.722 C 1031 573.425, 1030.550 574, 1030 574 C 1029.450 574, 1029 574.675, 1029 575.500 C 1029 576.325, 1028.621 577, 1028.157 577 C 1027.694 577, 1026.467 578.575, 1025.430 580.500 C 1024.393 582.425, 1023.229 584, 1022.843 584 C 1022.456 584, 1021.129 586.025, 1019.893 588.500 C 1018.657 590.975, 1017.252 593, 1016.771 593 C 1016.290 593, 1015.425 594.350, 1014.850 596 C 1014.275 597.650, 1013.173 599, 1012.402 599 C 1011.631 599, 1011 599.606, 1011 600.347 C 1011 601.534, 1010.079 602.894, 1006.014 607.712 C 1005.452 608.379, 1004.471 610.067, 1003.835 611.462 C 1003.199 612.858, 1002.301 614, 1001.839 614 C 1001.378 614, 1001 614.900, 1001 616 C 1001 617.100, 1000.660 618, 1000.244 618 C 999.828 618, 998.928 619.265, 998.243 620.812 C 997.559 622.359, 996.099 624.590, 994.999 625.770 C 993.900 626.951, 993 628.385, 993 628.958 C 993 629.531, 992.550 630, 992 630 C 991.450 630, 991 630.643, 991 631.429 C 991 632.214, 990.438 633.460, 989.750 634.197 C 989.063 634.934, 987.625 637.103, 986.556 639.018 C 985.487 640.933, 984.024 643.095, 983.306 643.821 C 982.588 644.548, 982 645.731, 982 646.449 C 982 647.167, 981.317 648.322, 980.482 649.015 C 979.646 649.708, 978.194 651.901, 977.254 653.888 C 975.477 657.643, 969.934 666.537, 967.958 668.803 C 967.333 669.520, 963.880 675.933, 960.285 683.053 C 956.678 690.197, 953.133 696, 952.374 696 C 951.613 696, 951 697.011, 951 698.268 C 951 699.515, 949.941 702.103, 948.646 704.018 C 947.351 705.933, 943.864 712.225, 940.896 718 C 937.928 723.775, 935.163 728.650, 934.750 728.833 C 934.337 729.017, 934 730.029, 934 731.083 C 934 732.138, 933.550 733, 933 733 C 932.450 733, 932 733.651, 932 734.446 C 932 735.242, 930.402 738.619, 928.449 741.951 C 925.271 747.375, 921.372 755.402, 913.249 773.250 C 911.810 776.413, 910.265 779, 909.816 779 C 909.367 779, 909 779.716, 909 780.591 C 909 781.467, 907.245 785.629, 905.100 789.841 C 900.032 799.793, 897.674 805.071, 897.299 807.303 C 896.974 809.242, 894.114 815.178, 893.110 816 C 891.877 817.010, 889.069 822.735, 889.564 823.230 C 890.292 823.958, 887.860 829, 886.780 829 C 886.286 829, 886.172 829.470, 886.527 830.044 C 886.882 830.618, 886.459 832.177, 885.586 833.509 C 884.714 834.840, 884 836.423, 884 837.027 C 884 837.630, 882.932 840.458, 881.627 843.312 C 878.605 849.917, 877.789 852.031, 877.325 854.457 C 877.118 855.533, 876.623 856.658, 876.225 856.957 C 875.826 857.255, 875.346 858.400, 875.158 859.500 C 874.971 860.600, 874.408 861.650, 873.908 861.833 C 873.409 862.017, 873 863.003, 873 864.024 C 873 865.046, 872.550 866.160, 872 866.500 C 871.450 866.840, 871 868.216, 871 869.559 C 871 870.902, 870.550 872, 870 872 C 869.450 872, 869 872.847, 869 873.883 C 869 874.918, 867.035 880.656, 864.633 886.633 C 859.904 898.401, 857.880 904.213, 858.237 905 C 858.362 905.275, 857.718 906.564, 856.807 907.865 C 855.896 909.165, 855.390 910.853, 855.682 911.615 C 855.975 912.377, 855.730 913, 855.138 913 C 854.547 913, 854.322 913.675, 854.638 914.500 C 854.955 915.325, 854.730 916, 854.138 916 C 853.547 916, 853.289 916.589, 853.565 917.308 C 853.841 918.028, 853.161 919.661, 852.054 920.937 C 850.947 922.214, 850.260 923.612, 850.528 924.045 C 850.795 924.478, 848.159 933.307, 844.669 943.666 C 841.179 954.025, 838.499 963.021, 838.715 963.658 C 838.930 964.295, 838.632 965.110, 838.053 965.467 C 837.474 965.825, 837 967.141, 837 968.392 C 837 969.643, 836.701 970.966, 836.335 971.332 C 835.969 971.698, 835.539 973.229, 835.378 974.734 C 835.218 976.240, 834.617 977.628, 834.043 977.819 C 833.469 978.010, 833 979.704, 833 981.583 C 833 983.462, 832.550 985, 832 985 C 831.450 985, 831 986.350, 831 988 C 831 989.650, 830.639 991, 830.198 991 C 829.757 991, 829.350 992.634, 829.293 994.632 C 829.237 996.630, 828.810 998.542, 828.345 998.882 C 827.880 999.222, 827.400 1000.846, 827.279 1002.490 C 827.157 1004.135, 826.595 1005.635, 826.029 1005.824 C 825.463 1006.012, 825 1007.629, 825 1009.417 C 825 1011.204, 824.683 1012.984, 824.296 1013.371 C 823.908 1013.759, 823.432 1015.296, 823.238 1016.788 C 823.045 1018.280, 821.740 1024, 820.339 1029.500 C 818.939 1035, 817.790 1040.625, 817.786 1042 C 817.783 1043.375, 817.307 1045.083, 816.730 1045.796 C 816.152 1046.508, 815.738 1048.646, 815.809 1050.546 C 815.881 1052.446, 815.615 1054, 815.220 1054 C 814.824 1054, 814.419 1056.091, 814.321 1058.647 C 814.222 1061.203, 813.772 1063.566, 813.321 1063.897 C 812.869 1064.229, 812.381 1066.278, 812.235 1068.450 C 812.089 1070.623, 811.478 1072.704, 810.878 1073.076 C 810.266 1073.454, 810.082 1074.684, 810.460 1075.875 C 810.865 1077.152, 810.701 1078, 810.048 1078 C 809.377 1078, 809.212 1078.996, 809.616 1080.607 C 810.020 1082.215, 809.808 1083.500, 809.065 1083.960 C 808.401 1084.370, 807.789 1086.909, 807.705 1089.603 C 807.620 1092.296, 807.155 1094.780, 806.672 1095.123 C 806.188 1095.466, 805.767 1098.503, 805.735 1101.873 C 805.703 1105.243, 805.300 1108, 804.839 1108 C 804.377 1108, 804.009 1109.688, 804.020 1111.750 C 804.058 1119.093, 800.660 1149.523, 799.656 1150.822 C 798.161 1152.758, 792.293 1151.775, 785.404 1148.436 C 782.157 1146.862, 779.350 1145.219, 779.167 1144.787 C 778.983 1144.354, 778.196 1144, 777.417 1144 C 776.638 1144, 776 1143.606, 776 1143.125 C 776 1142.644, 774.704 1141.991, 773.121 1141.674 C 771.537 1141.357, 769.544 1140.401, 768.692 1139.549 C 767.840 1138.697, 766.661 1138, 766.071 1138 C 765.482 1138, 765 1137.651, 765 1137.224 C 765 1136.797, 762.979 1135.560, 760.509 1134.474 C 758.040 1133.388, 756.015 1132.162, 756.009 1131.750 C 756.004 1131.338, 755.325 1131, 754.500 1131 C 753.675 1131, 753 1130.550, 753 1130 C 753 1129.450, 752.391 1129, 751.646 1129 C 750.901 1129, 749.129 1127.922, 747.708 1126.605 C 746.286 1125.288, 744.881 1124.452, 744.585 1124.748 C 744.289 1125.044, 743.764 1124.549, 743.419 1123.649 C 743.073 1122.748, 742.388 1122.260, 741.895 1122.565 C 741.403 1122.869, 741 1122.641, 741 1122.059 C 741 1121.477, 740.325 1121, 739.500 1121 C 738.675 1121, 738 1120.550, 738 1120 C 738 1119.450, 737.325 1119, 736.500 1119 C 735.675 1119, 735 1118.550, 735 1118 C 735 1117.450, 734.362 1117, 733.583 1117 C 732.804 1117, 732.017 1116.662, 731.833 1116.250 C 731.379 1115.227, 723.581 1109.440, 723.174 1109.824 C 722.995 1109.993, 721.983 1109.133, 720.924 1107.913 C 719.866 1106.692, 718.999 1106.100, 718.999 1106.597 C 718.998 1107.094, 717.933 1106.263, 716.632 1104.750 C 715.332 1103.237, 713.950 1102, 713.562 1102 C 713.174 1102, 712.228 1101.438, 711.460 1100.750 C 710.691 1100.063, 708.645 1098.375, 706.913 1097 C 705.180 1095.625, 702.501 1093.263, 700.958 1091.750 C 699.416 1090.237, 697.859 1089, 697.499 1089 C 696.511 1089, 689 1080.974, 689 1079.918 C 689 1079.413, 688.334 1079, 687.521 1079 C 686.191 1079, 672 1065.639, 672 1064.387 C 672 1064.103, 669.862 1061.674, 667.250 1058.989 C 664.638 1056.305, 661.150 1052.515, 659.500 1050.568 C 657.850 1048.620, 655.375 1045.719, 654 1044.120 C 646.767 1035.708, 644.417 1032.734, 643.597 1030.957 C 643.101 1029.881, 642.313 1029, 641.847 1029 C 641.381 1029, 641 1028.531, 641 1027.958 C 641 1026.977, 640.218 1025.846, 637.250 1022.537 C 636.563 1021.770, 636 1020.698, 636 1020.155 C 636 1019.611, 635.634 1019.017, 635.187 1018.833 C 633.940 1018.322, 625.030 1005.209, 623.887 1002.203 C 623.330 1000.739, 622.556 999.307, 622.166 999.020 C 620.566 997.847, 613.189 985.301, 612.598 982.750 C 612.248 981.237, 611.372 980, 610.652 980 C 609.931 980, 608.254 977.638, 606.924 974.750 C 605.595 971.862, 603.943 968.905, 603.253 968.179 C 602.564 967.452, 602 966.448, 602 965.947 C 602 964.781, 593.831 947.664, 592.957 947 C 591.712 946.053, 590 942.128, 590 940.219 C 590 939.167, 589.100 937.268, 588 936 C 586.900 934.732, 586 932.863, 586 931.847 C 586 930.831, 585.502 930, 584.893 930 C 584.284 930, 584.032 929.358, 584.334 928.573 C 584.635 927.788, 584.233 926.608, 583.441 925.951 C 582.648 925.293, 582 924.173, 582 923.462 C 582 922.304, 576.185 908.159, 573.902 903.764 C 573.406 902.809, 573 901.089, 573 899.942 C 573 898.795, 572.299 897.156, 571.442 896.300 C 570.586 895.443, 570.122 894.125, 570.411 893.371 C 570.700 892.617, 570.501 892, 569.969 892 C 569.436 892, 569 891.127, 569 890.059 C 569 888.991, 568.606 887.875, 568.125 887.577 C 567.644 887.280, 567.250 885.810, 567.250 884.310 C 567.250 882.810, 566.744 881.415, 566.125 881.208 C 565.506 881.002, 565 880.008, 565 879 C 565 877.992, 564.591 877.017, 564.090 876.833 C 563.590 876.650, 562.958 875.065, 562.687 873.311 C 562.416 871.558, 561.825 869.533, 561.375 868.811 C 560.925 868.090, 560.459 866.825, 560.339 866 C 560.021 863.798, 555.894 851.027, 554.263 847.199 C 553.490 845.383, 552.595 842.233, 552.274 840.199 C 551.953 838.165, 551.235 836.202, 550.679 835.838 C 550.122 835.474, 549.667 833.786, 549.667 832.088 C 549.667 830.390, 549.292 829, 548.833 829 C 548.375 829, 548 827.902, 548 826.559 C 548 825.216, 547.606 823.875, 547.125 823.577 C 546.644 823.280, 546.250 821.810, 546.250 820.310 C 546.250 818.810, 545.744 817.415, 545.125 817.208 C 544.506 817.002, 544 815.740, 544 814.403 C 544 813.066, 543.611 811.191, 543.135 810.236 C 542.659 809.281, 541.124 804, 539.722 798.500 C 538.321 793, 536.226 785.210, 535.066 781.188 C 533.907 777.166, 533.219 773.454, 533.538 772.938 C 533.857 772.422, 533.611 772, 532.992 772 C 532.320 772, 532.122 771.192, 532.500 770 C 532.891 768.769, 532.680 768, 531.951 768 C 531.256 768, 530.985 767.167, 531.294 765.982 C 531.585 764.873, 531.194 763.337, 530.427 762.569 C 529.659 761.802, 528.912 759.672, 528.766 757.837 C 528.620 756.002, 528.169 754.252, 527.763 753.949 C 527.358 753.646, 526.879 752.051, 526.699 750.404 C 526.519 748.757, 526.036 746.867, 525.627 746.205 C 525.217 745.542, 525.110 744.630, 525.390 744.178 C 525.669 743.726, 525.229 742.068, 524.413 740.494 C 523.596 738.920, 523.127 737.112, 523.370 736.478 C 523.614 735.843, 523.224 734.014, 522.504 732.412 C 521.784 730.810, 520.276 725.675, 519.153 721 C 518.030 716.325, 515.972 708.675, 514.580 704 C 513.188 699.325, 512.038 694.289, 512.024 692.809 C 512.011 691.329, 511.538 689.833, 510.973 689.484 C 510.409 689.135, 510.053 688.321, 510.183 687.675 C 510.313 687.029, 509.850 685.471, 509.154 684.212 C 508.459 682.954, 508.154 681.089, 508.479 680.068 C 508.810 679.022, 508.398 677.541, 507.534 676.677 C 506.690 675.833, 506 673.782, 506 672.118 C 506 670.455, 505.587 668.060, 505.081 666.797 C 503.343 662.449, 502.699 660.495, 502.348 658.500 C 502.154 657.400, 501.582 655.600, 501.076 654.500 C 500.570 653.400, 499.820 651.150, 499.409 649.500 C 498.999 647.850, 498.603 646.275, 498.531 646 C 498.458 645.725, 497.568 642.800, 496.554 639.500 C 495.540 636.200, 494.625 632.825, 494.520 632 C 494.414 631.175, 493.580 628.758, 492.664 626.628 C 491.749 624.498, 491 621.723, 491 620.461 C 491 619.199, 490.537 618.012, 489.971 617.824 C 489.405 617.635, 488.843 616.135, 488.721 614.490 C 488.600 612.846, 488.229 611.275, 487.898 611 C 487.092 610.330, 482.529 596.702, 482.793 595.750 C 482.907 595.337, 482.502 595, 481.893 595 C 481.284 595, 481.028 594.369, 481.324 593.598 C 481.620 592.827, 481.556 591.889, 481.181 591.514 C 480.806 591.140, 480.493 590.533, 480.484 590.167 C 480.463 589.302, 476.157 577.381, 474.463 573.500 C 473.743 571.850, 472.819 569.154, 472.408 567.510 C 471.998 565.865, 471.064 563.921, 470.332 563.189 C 469.600 562.457, 468.718 560.090, 468.373 557.929 C 468.027 555.768, 467.352 554, 466.872 554 C 466.392 554, 466 553.100, 466 552 C 466 550.900, 465.550 550, 465 550 C 464.450 550, 464 549.319, 464 548.486 C 464 547.654, 463.603 546.191, 463.117 545.236 C 462.631 544.281, 461.766 542.375, 461.195 541 C 460.624 539.625, 458.321 534.572, 456.078 529.770 C 453.835 524.969, 452 520.843, 452 520.602 C 452 520.361, 459.425 520.113, 468.499 520.051 C 477.574 519.989, 485.674 519.679, 486.499 519.362 C 487.325 519.045, 488 519.229, 488 519.770 C 488 520.348, 489.899 520.540, 492.603 520.235 C 495.592 519.899, 497.465 520.134, 497.942 520.905 C 498.396 521.641, 501.406 522.103, 505.838 522.117 C 509.777 522.129, 513 522.515, 513 522.973 C 513 523.432, 515.138 524.050, 517.750 524.346 C 526.842 525.379, 529.551 525.937, 538 528.517 C 542.675 529.944, 547.400 531.255, 548.500 531.429 C 549.600 531.602, 550.500 531.836, 550.500 531.947 C 550.500 532.058, 551.615 532.353, 552.979 532.603 C 554.342 532.853, 555.894 533.494, 556.429 534.029 C 556.963 534.563, 558.210 535, 559.200 535 C 560.190 535, 561 535.450, 561 536 C 561 536.550, 562.350 537, 564 537 C 565.650 537, 567 537.450, 567 538 C 567 538.550, 568.125 539, 569.500 539 C 570.875 539, 572.004 539.337, 572.008 539.750 C 572.017 540.648, 576.860 543, 578.699 543 C 579.415 543, 580 543.450, 580 544 C 580 544.550, 580.662 545, 581.470 545 C 582.279 545, 585.317 546.062, 588.220 547.360 C 591.124 548.658, 594.962 550.343, 596.750 551.104 C 598.538 551.865, 600 552.828, 600 553.244 C 600 553.660, 600.675 554, 601.500 554 C 602.325 554, 603 554.450, 603 555 C 603 555.550, 603.900 556, 605 556 C 606.100 556, 607 556.450, 607 557 C 607 557.550, 607.627 558, 608.393 558 C 609.159 558, 610.056 558.704, 610.386 559.563 C 610.716 560.423, 611.433 560.850, 611.980 560.512 C 612.527 560.174, 613.965 560.821, 615.176 561.949 C 616.386 563.077, 617.967 564, 618.689 564 C 619.410 564, 620 564.450, 620 565 C 620 565.550, 620.675 566, 621.500 566 C 622.325 566, 623 566.398, 623 566.883 C 623 567.369, 623.788 568.015, 624.750 568.319 C 628.047 569.360, 634.486 573.499, 636.323 575.760 C 637.334 577.002, 638.574 577.763, 639.080 577.451 C 639.586 577.138, 640 577.359, 640 577.941 C 640 578.523, 640.469 579, 641.042 579 C 642.084 579, 643.447 579.961, 647.072 583.250 C 648.132 584.212, 649.291 585, 649.647 585 C 650.470 585, 659.388 592.208, 659.833 593.233 C 660.017 593.655, 660.624 594, 661.182 594 C 661.741 594, 663.459 595.350, 665 597 C 666.541 598.650, 668.246 600, 668.789 600 C 669.331 600, 670.838 601.346, 672.137 602.991 C 673.437 604.636, 674.802 605.986, 675.171 605.991 C 675.540 605.996, 677.980 608.138, 680.592 610.750 C 683.205 613.362, 685.410 615.275, 685.492 615 C 685.575 614.725, 686.377 615.234, 687.274 616.131 C 688.171 617.028, 688.626 618.040, 688.286 618.381 C 687.945 618.721, 688.212 619, 688.878 619 C 689.545 619, 693.332 622.444, 697.295 626.653 C 701.258 630.862, 706.975 636.922, 710 640.119 C 713.025 643.316, 716.400 647.103, 717.500 648.534 C 718.600 649.965, 720.723 652.568, 722.218 654.318 C 723.713 656.068, 725.963 658.734, 727.218 660.243 C 728.473 661.751, 730.063 663.631, 730.750 664.421 C 731.438 665.211, 732 666.239, 732 666.706 C 732 667.173, 732.788 668.243, 733.750 669.084 C 734.712 669.924, 736.400 671.861, 737.500 673.387 C 738.600 674.913, 741.633 678.938, 744.241 682.331 C 746.849 685.724, 748.986 689.025, 748.991 689.667 C 748.996 690.308, 749.369 690.983, 749.819 691.167 C 750.874 691.596, 759.263 704, 758.498 704 C 758.181 704, 758.840 704.985, 759.961 706.189 C 761.082 707.392, 762 708.673, 762 709.036 C 762 709.398, 762.900 710.732, 764 712 C 765.100 713.268, 766 714.912, 766 715.653 C 766 716.394, 766.450 717, 767 717 C 767.550 717, 768 717.675, 768 718.500 C 768 719.325, 768.900 720.900, 770 722 C 771.100 723.100, 772 724.900, 772 726 C 772 727.900, 772.662 727.999, 785.250 727.986 C 799.780 727.971, 803 727.490, 803 725.335 C 803 724.548, 803.900 722.041, 805 719.764 C 806.100 717.487, 807 714.835, 807 713.871 C 807 712.907, 807.450 711.840, 808 711.500 C 808.550 711.160, 809 709.784, 809 708.441 C 809 707.098, 809.436 706, 809.969 706 C 810.501 706, 810.700 705.383, 810.411 704.629 C 810.122 703.875, 810.586 702.557, 811.442 701.700 C 812.299 700.844, 813 699.410, 813 698.515 C 813 697.179, 816.652 687.494, 820.925 677.500 C 821.395 676.400, 822.291 673.608, 822.917 671.295 C 823.542 668.982, 824.640 666.503, 825.357 665.786 C 826.074 665.069, 826.475 663.924, 826.247 663.241 C 826.019 662.558, 826.271 662, 826.805 662 C 827.340 662, 828.073 660.425, 828.434 658.500 C 828.795 656.575, 829.471 655, 829.937 655 C 830.402 655, 831.066 653.875, 831.411 652.500 C 831.756 651.125, 832.480 650, 833.019 650 C 833.559 650, 834 648.875, 834 647.500 C 834 646.125, 834.450 645, 835 645 C 835.550 645, 836 644.313, 836 643.472 C 836 642.632, 837.575 638.758, 839.500 634.863 C 841.425 630.967, 843 627.155, 843 626.390 C 843 625.626, 843.450 625, 844 625 C 844.550 625, 845 624.138, 845 623.083 C 845 622.029, 845.360 621.017, 845.800 620.833 C 846.240 620.650, 848.120 617.237, 849.977 613.250 C 851.835 609.263, 853.725 606, 854.177 606 C 854.630 606, 855 605.325, 855 604.500 C 855 603.675, 855.450 603, 856 603 C 856.550 603, 857 602.349, 857 601.553 C 857 600.272, 857.965 598.295, 863.616 588 C 864.370 586.625, 864.990 584.938, 864.994 584.250 C 864.997 583.563, 865.441 583, 865.981 583 C 866.520 583, 867.244 581.875, 867.589 580.500 C 867.934 579.125, 868.508 578, 868.864 578 C 869.220 578, 870.114 576.640, 870.850 574.978 C 871.585 573.316, 872.708 571.396, 873.344 570.713 C 873.980 570.029, 875.378 567.752, 876.451 565.653 C 877.524 563.555, 880.787 558.171, 883.701 553.691 C 886.616 549.210, 889 544.971, 889 544.272 C 889 543.572, 889.450 543, 890 543 C 890.550 543, 891 542.481, 891 541.846 C 891 540.476, 909.942 511.650, 911.160 511.167 C 911.622 510.983, 912 510.196, 912 509.417 C 912 508.637, 912.450 508, 913 508 C 913.550 508, 914 507.325, 914 506.500 C 914 505.675, 914.450 505, 915 505 C 915.550 505, 916 504.325, 916 503.500 C 916 502.675, 916.450 502, 917 502 C 917.550 502, 918 501.325, 918 500.500 C 918 499.675, 918.450 499, 919 499 C 919.550 499, 920 498.410, 920 497.689 C 920 496.967, 920.813 495.505, 921.806 494.439 C 922.799 493.372, 923.718 492.050, 923.848 491.500 C 924.239 489.847, 928.444 484.014, 929.250 484.007 C 929.663 484.003, 930 483.519, 930 482.930 C 930 481.751, 935.717 473.088, 937.543 471.500 C 938.176 470.950, 939.699 468.813, 940.928 466.750 C 942.157 464.687, 943.576 463, 944.082 463 C 944.587 463, 945 462.425, 945 461.722 C 945 461.019, 945.900 459.674, 947 458.732 C 948.100 457.790, 949 456.448, 949 455.750 C 949 455.051, 950.125 453.266, 951.500 451.783 C 952.875 450.301, 954 448.618, 954 448.044 C 954 447.470, 954.450 447, 955 447 C 955.550 447, 956 446.391, 956 445.646 C 956 444.901, 957.013 443.173, 958.250 441.806 C 961.310 438.425, 964.498 433.869, 965.286 431.750 C 965.644 430.788, 966.353 430, 966.860 430 C 967.368 430, 968.066 428.875, 968.411 427.500 C 968.756 426.125, 969.480 425, 970.019 425 C 970.559 425, 971 424.329, 971 423.508 C 971 422.688, 971.900 421.455, 973 420.768 C 974.100 420.081, 975 418.987, 975 418.336 C 975 417.685, 976.484 415.206, 978.298 412.827 C 982.581 407.206, 990 396.264, 990 395.566 C 990 394.853, 993.037 391.132, 995.250 389.135 C 996.212 388.266, 997 386.981, 997 386.278 C 997 385.575, 997.395 385, 997.879 385 C 998.362 385, 999.317 383.650, 1000 382 C 1000.683 380.350, 1001.713 379, 1002.288 379 C 1002.863 379, 1003.064 378.731, 1002.736 378.403 C 1001.925 377.592, 1007.764 368.231, 1009.787 367.099 C 1011.148 366.338, 1011.195 365.939, 1010.080 364.597 C 1009.351 363.719, 1008.135 363, 1007.378 363 C 1006.620 363, 1006 362.550, 1006 362 C 1006 361.450, 1005.424 361, 1004.721 361 C 1004.017 361, 1002.793 360.100, 1002 359 C 1001.207 357.900, 999.983 357, 999.279 357 C 998.576 357, 998 356.550, 998 356 C 998 355.450, 997.373 355, 996.607 355 C 995.841 355, 994.968 354.359, 994.667 353.576 C 994.367 352.792, 992.519 351.391, 990.560 350.462 C 988.602 349.532, 987 348.373, 987 347.886 C 987 347.399, 986.311 347, 985.469 347 C 984.626 347, 983.678 346.325, 983.362 345.500 C 983.045 344.675, 982.159 344, 981.393 344 C 980.627 344, 980 343.550, 980 343 C 980 342.450, 979.325 342, 978.500 342 C 977.675 342, 977 341.523, 977 340.941 C 977 340.359, 976.547 340.162, 975.993 340.504 C 975.439 340.847, 974.716 340.423, 974.386 339.563 C 974.056 338.704, 973.159 338, 972.393 338 C 971.627 338, 971 337.550, 971 337 C 971 336.450, 970.424 336, 969.721 336 C 969.017 336, 967.793 335.100, 967 334 C 966.207 332.900, 965.068 332, 964.468 332 C 963.868 332, 962.505 331.212, 961.439 330.250 C 960.372 329.288, 958.172 327.825, 956.549 327 C 954.925 326.175, 951.363 323.832, 948.633 321.793 C 945.903 319.755, 943.293 318.319, 942.834 318.602 C 942.376 318.886, 942 318.641, 942 318.059 C 942 317.477, 941.325 317, 940.500 317 C 939.675 317, 939 316.550, 939 316 C 939 315.450, 938.663 315.079, 938.250 315.175 C 937.048 315.454, 932 312.761, 932 311.839 C 932 311.378, 931.559 311, 931.019 311 C 930.480 311, 927.577 309.425, 924.567 307.500 C 921.558 305.575, 918.565 304, 917.915 304 C 917.266 304, 915.978 303.128, 915.054 302.062 C 914.130 300.996, 912.738 299.984, 911.960 299.812 C 911.183 299.641, 909.961 298.957, 909.245 298.292 C 908.528 297.628, 907.280 297.339, 906.471 297.649 C 905.539 298.007, 905 297.603, 905 296.548 C 905 295.632, 904.550 295.160, 904 295.500 C 903.450 295.840, 903 295.641, 903 295.059 C 903 294.477, 902.100 294, 901 294 C 899.900 294, 899 293.550, 899 293 C 899 292.450, 898.100 292, 897 292 C 895.900 292, 895 291.550, 895 291 C 895 290.450, 894.384 290, 893.632 290 C 892.880 290, 889.189 288.425, 885.430 286.500 C 881.671 284.575, 878.011 283, 877.298 283 C 876.584 283, 876 282.550, 876 282 C 876 281.450, 875.148 281, 874.107 281 C 873.066 281, 871.968 280.360, 871.668 279.578 C 871.364 278.785, 870.318 278.366, 869.306 278.630 C 868.304 278.892, 866.502 278.185, 865.287 277.053 C 864.075 275.924, 862.165 275, 861.042 275 C 859.919 275, 859 274.550, 859 274 C 859 273.450, 858.100 273, 857 273 C 855.900 273, 855 272.550, 855 272 C 855 271.450, 853.875 271, 852.500 271 C 851.125 271, 850 270.550, 850 270 C 850 269.450, 849.098 269, 847.995 269 C 846.892 269, 843.658 267.875, 840.808 266.500 C 837.958 265.125, 834.633 264, 833.420 264 C 832.207 264, 830.958 263.333, 830.645 262.517 C 830.332 261.701, 829.429 261.282, 828.639 261.585 C 827.849 261.888, 826.905 261.656, 826.542 261.068 C 826.179 260.481, 825.009 260, 823.941 260 C 822.873 260, 822 259.550, 822 259 C 822 258.450, 820.650 258, 819 258 C 817.350 258, 816 257.550, 816 257 C 816 256.450, 814.650 256, 813 256 C 811.350 256, 810 255.550, 810 255 C 810 254.450, 808.950 254, 807.667 254 C 806.383 254, 805.020 253.687, 804.638 253.304 C 804.255 252.922, 803.245 252.506, 802.393 252.381 C 801.541 252.256, 800.091 251.827, 799.172 251.427 C 798.252 251.027, 796.755 250.551, 795.844 250.370 C 794.933 250.189, 790.713 248.907, 786.466 247.521 C 782.220 246.134, 777.954 245, 776.987 245 C 776.020 245, 773.940 244.331, 772.364 243.513 C 770.789 242.695, 768.750 242.263, 767.834 242.554 C 766.918 242.844, 765.879 242.613, 765.525 242.041 C 765.171 241.468, 763.334 241, 761.441 241 C 759.548 241, 758 240.550, 758 240 C 758 239.450, 756.013 239, 753.583 239 C 751.154 239, 749.010 238.530, 748.819 237.956 C 748.627 237.382, 746.565 236.837, 744.235 236.744 C 741.906 236.651, 740 236.221, 740 235.788 C 740 235.354, 737.525 235, 734.500 235 C 731.475 235, 729 234.662, 729 234.250 C 728.999 233.838, 726.672 233.402, 723.828 233.282 C 720.984 233.162, 718.397 232.663, 718.079 232.175 C 717.760 231.686, 713.675 231.018, 709 230.689 C 704.325 230.361, 696.450 229.648, 691.500 229.105 C 670.393 226.791, 642.659 225.982, 621.500 227.063" stroke="none" fill="#2b9b24" fill-rule="evenodd"></path></svg>